<?xml version="1.0" encoding="us-ascii" standalone="no"?><svg xmlns="http://www.w3.org/2000/svg" xmlns:xlink="http://www.w3.org/1999/xlink" contentStyleType="text/css" height="485px" preserveAspectRatio="none" style="width:605px;height:485px;background:#FFFFFF;" version="1.1" viewBox="0 0 605 485" width="605px" zoomAndPan="magnify"><defs/><g><rect fill="#F1F7FF" height="473.0689" rx="10" ry="10" style="stroke:none;stroke-width:0.5;" width="152" x="11" y="6"/><rect fill="#E6F9FF" height="473.0689" rx="10" ry="10" style="stroke:none;stroke-width:0.5;" width="188" x="222" y="6"/><rect fill="#EBF0F9" height="473.0689" rx="10" ry="10" style="stroke:none;stroke-width:0.5;" width="167" x="432" y="6"/><rect fill="#33B4FF" height="332.272" style="stroke:#33B4FF;stroke-width:1.0;" width="10" x="82" y="77.3984"/><rect fill="#33B4FF" height="288.768" style="stroke:#33B4FF;stroke-width:1.0;" width="10" x="311" y="120.9024"/><rect fill="#33B4FF" height="256.016" style="stroke:#33B4FF;stroke-width:1.0;" width="10" x="510.5" y="153.6544"/><line style="stroke:#33B4FF;stroke-width:0.5;stroke-dasharray:5.0,5.0;" x1="87" x2="87" y1="67.3984" y2="418.6704"/><line style="stroke:#33B4FF;stroke-width:0.5;stroke-dasharray:5.0,5.0;" x1="316" x2="316" y1="67.3984" y2="418.6704"/><line style="stroke:#33B4FF;stroke-width:0.5;stroke-dasharray:5.0,5.0;" x1="515" x2="515" y1="67.3984" y2="418.6704"/><rect fill="#FFFFFF" height="35.1992" rx="10" ry="10" style="stroke:#FFFFFF;stroke-width:0.5;" width="104" x="35" y="31.1992"/><text fill="#005EB0" font-family="sans-serif" font-size="18" font-weight="bold" lengthAdjust="spacing" textLength="90" x="42" y="55.6016">&#19994;&#21153;&#26381;&#21153;&#22120;</text><rect fill="#FFFFFF" height="35.1992" rx="10" ry="10" style="stroke:#FFFFFF;stroke-width:0.5;" width="104" x="35" y="417.6704"/><text fill="#005EB0" font-family="sans-serif" font-size="18" font-weight="bold" lengthAdjust="spacing" textLength="90" x="42" y="442.0728">&#19994;&#21153;&#26381;&#21153;&#22120;</text><rect fill="#FFFFFF" height="35.1992" rx="10" ry="10" style="stroke:#FFFFFF;stroke-width:0.5;" width="140" x="246" y="31.1992"/><text fill="#005EB0" font-family="sans-serif" font-size="18" font-weight="bold" lengthAdjust="spacing" textLength="126" x="253" y="55.6016">&#39029;&#38754;&#24405;&#21046;&#26381;&#21153;&#22120;</text><rect fill="#FFFFFF" height="35.1992" rx="10" ry="10" style="stroke:#FFFFFF;stroke-width:0.5;" width="140" x="246" y="417.6704"/><text fill="#005EB0" font-family="sans-serif" font-size="18" font-weight="bold" lengthAdjust="spacing" textLength="126" x="253" y="442.0728">&#39029;&#38754;&#24405;&#21046;&#26381;&#21153;&#22120;</text><rect fill="#FFFFFF" height="56.3984" rx="10" ry="10" style="stroke:#FFFFFF;stroke-width:0.5;" width="119" x="456" y="10"/><text fill="#005EB0" font-family="sans-serif" font-size="18" font-weight="bold" lengthAdjust="spacing" textLength="90" x="470.5" y="34.4023">&#24453;&#24405;&#21046;&#39029;&#38754;</text><text fill="#005EB0" font-family="sans-serif" font-size="18" font-weight="bold" lengthAdjust="spacing" textLength="99" x="469" y="55.6016">Web &#26381;&#21153;&#31471;</text><rect fill="#FFFFFF" height="56.3984" rx="10" ry="10" style="stroke:#FFFFFF;stroke-width:0.5;" width="119" x="456" y="417.6704"/><text fill="#005EB0" font-family="sans-serif" font-size="18" font-weight="bold" lengthAdjust="spacing" textLength="90" x="470.5" y="442.0728">&#24453;&#24405;&#21046;&#39029;&#38754;</text><text fill="#005EB0" font-family="sans-serif" font-size="18" font-weight="bold" lengthAdjust="spacing" textLength="99" x="469" y="463.272">Web &#26381;&#21153;&#31471;</text><rect fill="#33B4FF" height="332.272" style="stroke:#33B4FF;stroke-width:1.0;" width="10" x="82" y="77.3984"/><rect fill="#33B4FF" height="288.768" style="stroke:#33B4FF;stroke-width:1.0;" width="10" x="311" y="120.9024"/><rect fill="#33B4FF" height="256.016" style="stroke:#33B4FF;stroke-width:1.0;" width="10" x="510.5" y="153.6544"/><polygon fill="#505E72" points="299,116.9024,309,120.9024,299,124.9024,303,120.9024" style="stroke:#505E72;stroke-width:1.0;"/><line style="stroke:#505E72;stroke-width:2.0;" x1="92" x2="305" y1="120.9024" y2="120.9024"/><text fill="#000000" font-family="HarmonyOS Sans" font-size="16" lengthAdjust="spacing" textLength="9" x="147" y="105.6224">1</text><text fill="#505E72" font-family="HarmonyOS Sans" font-size="16" lengthAdjust="spacing" textLength="96" x="160" y="96.2464">&#35831;&#27714;&#24320;&#22987;&#24405;&#21046;</text><text fill="#505E72" font-family="HarmonyOS Sans" font-size="16" lengthAdjust="spacing" textLength="65" x="175.5" y="114.9984">sid = 001</text><polygon fill="#505E72" points="498.5,149.6544,508.5,153.6544,498.5,157.6544,502.5,153.6544" style="stroke:#505E72;stroke-width:1.0;"/><line style="stroke:#505E72;stroke-width:2.0;" x1="321" x2="504.5" y1="153.6544" y2="153.6544"/><text fill="#000000" font-family="HarmonyOS Sans" font-size="16" lengthAdjust="spacing" textLength="9" x="337.25" y="147.7504">2</text><text fill="#505E72" font-family="HarmonyOS Sans" font-size="16" lengthAdjust="spacing" textLength="144" x="350.25" y="147.7504">&#35775;&#38382;&#24182;&#21152;&#36733;&#30446;&#26631;&#39029;&#38754;</text><polygon fill="#505E72" points="332,182.4064,322,186.4064,332,190.4064,328,186.4064" style="stroke:#505E72;stroke-width:1.0;"/><line style="stroke:#505E72;stroke-width:2.0;" x1="326" x2="509.5" y1="186.4064" y2="186.4064"/><text fill="#000000" font-family="HarmonyOS Sans" font-size="16" lengthAdjust="spacing" textLength="9" x="351.25" y="180.5024">3</text><text fill="#505E72" font-family="HarmonyOS Sans" font-size="16" lengthAdjust="spacing" textLength="116" x="364.25" y="180.5024">&#36820;&#22238; HTML &#39029;&#38754;</text><line style="stroke:#505E72;stroke-width:2.0;" x1="279" x2="321" y1="237.9104" y2="237.9104"/><line style="stroke:#505E72;stroke-width:2.0;" x1="279" x2="279" y1="237.9104" y2="250.9104"/><line style="stroke:#505E72;stroke-width:2.0;" x1="279" x2="320" y1="250.9104" y2="250.9104"/><polygon fill="#505E72" points="312,246.9104,322,250.9104,312,254.9104,316,250.9104" style="stroke:#505E72;stroke-width:1.0;"/><text fill="#000000" font-family="HarmonyOS Sans" font-size="16" lengthAdjust="spacing" textLength="9" x="116" y="222.6304">4</text><text fill="#505E72" font-family="HarmonyOS Sans" font-size="16" lengthAdjust="spacing" textLength="144" x="153" y="213.2544">&#25191;&#34892;&#39029;&#38754; JavaScript</text><text fill="#505E72" font-family="HarmonyOS Sans" font-size="16" lengthAdjust="spacing" textLength="192" x="129" y="232.0064">&#30830;&#23450;&#39029;&#38754;&#20803;&#32032;&#20840;&#37096;&#21152;&#36733;&#25104;&#21151;</text><polygon fill="#505E72" points="103,298.4144,93,302.4144,103,306.4144,99,302.4144" style="stroke:#505E72;stroke-width:1.0;"/><line style="stroke:#505E72;stroke-width:2.0;" x1="97" x2="310" y1="302.4144" y2="302.4144"/><text fill="#000000" font-family="HarmonyOS Sans" font-size="16" lengthAdjust="spacing" textLength="9" x="162.5" y="287.1344">5</text><text fill="#505E72" font-family="HarmonyOS Sans" font-size="16" lengthAdjust="spacing" textLength="64" x="176" y="277.7584">&#24405;&#21046;&#24320;&#22987;</text><text fill="#505E72" font-family="HarmonyOS Sans" font-size="16" lengthAdjust="spacing" textLength="65" x="175.5" y="296.5104">sid = 001</text><polygon fill="#505E72" points="103,331.1664,93,335.1664,103,339.1664,99,335.1664" style="stroke:#505E72;stroke-width:1.0;"/><line style="stroke:#505E72;stroke-width:2.0;" x1="97" x2="509.5" y1="335.1664" y2="335.1664"/><text fill="#000000" font-family="HarmonyOS Sans" font-size="16" lengthAdjust="spacing" textLength="9" x="262.75" y="329.2624">6</text><text fill="#505E72" font-family="HarmonyOS Sans" font-size="16" lengthAdjust="spacing" textLength="64" x="275.75" y="329.2624">&#19978;&#25253;&#29366;&#24577;</text><polygon fill="#505E72" points="103,363.9184,93,367.9184,103,371.9184,99,367.9184" style="stroke:#505E72;stroke-width:1.0;"/><line style="stroke:#505E72;stroke-width:2.0;" x1="97" x2="509.5" y1="367.9184" y2="367.9184"/><text fill="#000000" font-family="HarmonyOS Sans" font-size="16" lengthAdjust="spacing" textLength="9" x="262.75" y="362.0144">7</text><text fill="#505E72" font-family="HarmonyOS Sans" font-size="16" lengthAdjust="spacing" textLength="64" x="275.75" y="362.0144">&#19978;&#25253;&#29366;&#24577;</text><polygon fill="#505E72" points="103,396.6704,93,400.6704,103,404.6704,99,400.6704" style="stroke:#505E72;stroke-width:1.0;"/><line style="stroke:#505E72;stroke-width:2.0;" x1="97" x2="509.5" y1="400.6704" y2="400.6704"/><text fill="#000000" font-family="HarmonyOS Sans" font-size="16" lengthAdjust="spacing" textLength="9" x="262.75" y="394.7664">8</text><text fill="#505E72" font-family="HarmonyOS Sans" font-size="16" lengthAdjust="spacing" textLength="64" x="275.75" y="394.7664">&#19978;&#25253;&#29366;&#24577;</text><!--SRC=[dP0zJy9G58Rt-okEE3Y1i6WWwc1YOunEchYmb7A76x4YBMYS44B4gj51GmG_g950Ob9YeeY6Zp_3QSk_i72Hhz7bTEZxFESzTmwmsi1CoSpLyESQ2oqhRzYfLpB3P2aI3rFmUEOLUXYdiaJToXwJFIo-7o4aT70Ciu9FM1G44XLZAfDOL9HLS7NgUTHqy-7AcNXVSO6eG8YT42g7mO4ukBOW-AV1hlxPVNp1vXrcQvEuGcC96fioh0fUmJzfm5Q6urmLb66NXe2xhBTgttL4GqCH4IML9KILzWiIPu1xPR0j07RrotnFOIE9vGkk3SeA2yCoUBs-4JeeH_Yt9t1MEBJHxkOC_AwXLhIRJQjWcCKptcl4zieGPqoiRTzYuGdMTxOsOP0VofVSmvXvNhRrInw03J4XRain5bM3igKRQEG7Zvb9Mnz5p5IwwGhlOMPlK7iUR-jS7G1-7xzr_Cg_SlrGfwwPMidIQcRoz7z_o2y0]--></g></svg>